PathFileType	4	(X/Y/Z)	s10c0102.trc
DataRate	CameraRate	NumFrames	NumMarkers	Units	OrigDataRate	OrigDataStartFrame	OrigNumFrames
200	200	4	50	mm	200	1250	2000
Frame#	Time	racr			lacr			c7			jug			rlel			rdr			llel			ldr			s2			lic			ric			lasi			rasi			rpsi			lpsi			rgt			lgt			rth1			rth2			rth3			rth4			rlfc			rmfc			rsh1			rsh2			rsh3			rsh4			rlmal			rmmal			rcal			rtoe			rmt5			lth1			lth2			lth4			lth3			llfc			lmfc			llmal			lmmal			lcal			lmt5			lsh1			lsh2			lsh3			lsh4			ltoe			SBIKE			LBIKE			RBIKE			
		X1	Y1	Z1	X2	Y2	Z2	X3	Y3	Z3	X4	Y4	Z4	X5	Y5	Z5	X6	Y6	Z6	X7	Y7	Z7	X8	Y8	Z8	X9	Y9	Z9	X10	Y10	Z10	X11	Y11	Z11	X12	Y12	Z12	X13	Y13	Z13	X14	Y14	Z14	X15	Y15	Z15	X16	Y16	Z16	X17	Y17	Z17	X18	Y18	Z18	X19	Y19	Z19	X20	Y20	Z20	X21	Y21	Z21	X22	Y22	Z22	X23	Y23	Z23	X24	Y24	Z24	X25	Y25	Z25	X26	Y26	Z26	X27	Y27	Z27	X28	Y28	Z28	X29	Y29	Z29	X30	Y30	Z30	X31	Y31	Z31	X32	Y32	Z32	X33	Y33	Z33	X34	Y34	Z34	X35	Y35	Z35	X36	Y36	Z36	X37	Y37	Z37	X38	Y38	Z38	X39	Y39	Z39	X40	Y40	Z40	X41	Y41	Z41	X42	Y42	Z42	X43	Y43	Z43	X44	Y44	Z44	X45	Y45	Z45	X46	Y46	Z46	X47	Y47	Z47	X48	Y48	Z48	X49	Y49	Z49	X50	Y50	Z50	
1250	6.2500	407.564823	1267.464127	-20.387072	449.307324	1272.065357	-325.945134	392.733010	1310.544383	-185.256598	389.927822	1167.392083	-191.313447	468.529778	1013.443283	42.588860	635.567023	879.405000	-46.533343	489.842604	1039.224088	-477.510286	637.365921	884.535512	-414.867743	-112.619710	1093.529103	-236.009893	58.365069	1105.571094	-383.852233	49.335229	1136.428269	-87.974419	85.549968	1024.079622	-344.318799	58.496164	1057.280302	-98.526262	-82.132587	1155.722359	-184.284495	-66.093348	1154.096487	-297.185387	-37.171718	1042.166872	-28.563727	-41.633929	963.779825	-414.812805	93.990122	984.003312	-14.958212	178.383342	997.269982	-38.597202	257.923964	968.178727	-40.739877	178.319968	1032.205055	-52.660844	369.224696	964.568855	-70.007632	358.852253	945.564506	-197.637698	310.135175	869.298069	-40.753759	293.084775	783.120230	-51.508397	237.353342	717.589200	-52.703098	322.632148	771.539977	-72.812402	186.835157	612.794228	-62.973343	216.789535	619.039699	-141.860166	133.763822	619.393433	-110.540910	318.656962	460.378177	-105.821430	237.934195	489.815209	-45.319975	18.364055	855.565729	-432.689926	76.548335	791.478145	-423.252166	108.394171	808.665448	-413.741843	93.597698	704.349162	-414.948670	137.780608	606.182080	-395.577659	147.260946	599.916660	-278.316562	-10.672635	258.621563	-378.377036	15.388523	257.385702	-302.361339	-61.121064	232.378812	-330.115903	96.083108	154.078288	-401.289333	60.525839	508.936471	-417.722217	62.183477	422.822158	-406.356756	17.144219	346.093634	-394.781812	94.549041	417.224977	-387.048784	184.463527	171.849411	-348.765445	-218.274998	833.050941	-214.259725	-104.051965	80.440718	-418.374869	-104.038938	80.505945	-18.343582	
1251	6.2550	406.519467	1267.411286	-19.020029	450.055547	1271.263141	-324.262147	393.015022	1310.140372	-184.153671	389.473179	1166.980022	-189.819129	467.808577	1013.115435	43.474657	635.329334	879.543965	-46.439893	490.059071	1039.444640	-477.403055	637.459117	884.540473	-414.959621	-113.278231	1095.119253	-235.639747	58.022787	1106.521948	-383.914683	48.464056	1138.014386	-88.890142	84.547871	1024.947847	-344.883197	57.674640	1058.663177	-98.739942	-82.378036	1157.733931	-184.331218	-66.654955	1155.631698	-296.973337	-36.914110	1044.003059	-27.978394	-43.595222	964.912434	-415.033433	93.264052	985.193554	-15.484761	177.859053	997.371152	-39.520131	256.954503	967.325358	-41.646693	178.119282	1032.089985	-53.931573	368.142020	961.255159	-71.050584	355.865052	942.166836	-198.268810	308.254815	866.497241	-42.831082	293.272100	779.386671	-51.695636	238.966470	712.797413	-52.559626	323.301496	768.176417	-72.511863	190.241089	606.974413	-62.581195	219.859893	614.146524	-141.174664	136.678038	611.222001	-109.796381	328.269071	460.756068	-105.902008	246.302949	486.506420	-45.022156	17.499181	856.165060	-433.051155	76.684075	792.961841	-423.566166	108.333600	810.676330	-414.592406	95.185012	706.191678	-415.050140	139.877145	608.648636	-396.160564	151.322443	601.661690	-279.006189	-17.341909	265.405081	-378.091852	8.547193	263.438300	-301.918349	-68.557513	240.374672	-329.718755	86.713328	158.327898	-401.102186	60.491620	513.341156	-417.929129	59.972045	427.320269	-406.248573	13.077071	351.721231	-394.440526	92.194896	420.943430	-386.958775	175.509870	173.662745	-348.635805	-218.437509	833.083789	-214.003359	-104.037587	80.463023	-418.358697	-104.055621	80.525932	-18.344218	
1252	6.2600	405.592543	1267.342898	-17.978427	450.738142	1270.458026	-322.569419	393.216500	1309.742853	-182.887872	389.025064	1166.581500	-188.289618	467.230841	1012.942856	44.164744	635.036877	879.821015	-46.436450	490.276515	1039.665385	-477.311845	637.536474	884.521882	-415.029451	-113.992394	1096.603339	-235.225855	57.641030	1107.389963	-384.040011	47.333303	1139.686956	-89.446805	83.760242	1025.966820	-345.800662	56.940811	1059.463184	-99.064660	-82.780379	1159.428347	-184.072177	-67.448750	1157.222439	-297.154479	-36.838971	1045.643363	-27.847023	-45.624442	966.083245	-415.197467	92.210867	985.816457	-16.348047	177.114006	996.723451	-40.511065	255.708317	965.368950	-42.421041	177.775063	1031.087802	-55.211291	366.884301	956.705130	-71.900357	352.759851	936.955736	-198.729034	306.614560	861.947117	-44.392182	293.201160	774.029426	-52.262064	240.295136	706.623977	-52.181656	323.058992	762.958456	-73.505623	193.110429	600.115273	-61.883624	222.509471	607.758284	-140.122684	139.377777	601.720552	-108.721081	337.363399	460.554189	-105.893828	254.442892	482.161090	-44.776924	16.569580	856.593326	-433.309741	76.930072	794.552669	-423.797236	108.341962	812.917067	-415.541069	97.052504	708.214941	-414.852842	142.446754	611.534626	-396.392648	156.243107	603.768294	-279.753252	-23.581652	272.801886	-377.814421	2.524426	269.920641	-301.623013	-75.480454	248.848204	-329.395650	77.646330	163.196435	-400.866471	61.167635	518.163595	-418.048850	58.497543	432.193409	-406.063381	9.699741	357.826975	-394.167961	90.536009	425.096718	-386.706323	166.706219	175.804995	-348.453605	-218.376926	833.048360	-214.382016	-104.043041	80.451765	-418.369977	-104.065670	80.540663	-18.332350	
1253	6.2650	404.817925	1267.241959	-17.156853	451.166512	1269.567244	-320.945833	393.273892	1309.393330	-181.965308	388.463314	1166.234764	-187.139858	466.609906	1012.807551	44.751836	634.800068	879.920033	-46.430414	490.490050	1039.863641	-477.268450	637.582360	884.488333	-415.100916	-114.710482	1097.945974	-234.686427	57.041781	1108.485070	-384.113453	46.507221	1141.024348	-90.384021	82.626728	1026.980168	-346.565382	56.116200	1060.180689	-99.694892	-82.717622	1161.307713	-184.120115	-67.954769	1158.560298	-297.086650	-36.848852	1046.809048	-27.913548	-47.823200	967.131275	-414.848765	90.912278	986.168471	-17.254658	175.928940	994.836783	-41.390043	254.001804	962.142465	-43.894411	177.085580	1029.301799	-56.648701	365.598631	950.998955	-72.678147	350.604553	929.953063	-199.036513	305.320965	855.644412	-45.822760	293.460562	767.662366	-51.073226	241.480658	699.148808	-51.503964	323.386485	756.635180	-73.166340	195.600893	592.066471	-61.135801	224.866249	600.147716	-139.277050	141.023634	591.217255	-107.943366	345.879247	459.756232	-105.801020	262.034396	477.216203	-44.261613	15.711040	856.933789	-433.540420	77.304632	796.181625	-423.820220	108.446219	815.228034	-416.321850	99.275190	710.436554	-414.485126	145.815800	614.770271	-396.493805	161.410854	606.615540	-280.253897	-29.682107	280.617661	-377.626627	-2.798432	276.594255	-301.438401	-81.963779	258.068610	-329.062194	69.018416	168.731224	-400.623787	62.562737	523.201002	-418.129074	57.633797	437.450263	-405.785080	6.983010	364.289008	-393.964391	89.335401	429.627965	-386.249843	158.338692	178.634479	-348.258666	-218.438183	833.023230	-214.357460	-104.037726	80.444236	-418.379390	-104.054205	80.528939	-18.331576	
